<?xml version="1.0" encoding="utf-8"?>
<!-- Generator: Adobe Illustrator 17.0.0, SVG Export Plug-In . SVG Version: 6.00 Build 0)  -->
<!DOCTYPE svg PUBLIC "-//W3C//DTD SVG 1.1//EN" "http://www.w3.org/Graphics/SVG/1.1/DTD/svg11.dtd">
<svg version="1.1" id="Layer_1" xmlns="http://www.w3.org/2000/svg" xmlns:xlink="http://www.w3.org/1999/xlink" x="0px" y="0px"
	 width="114.526px" height="71.259px" viewBox="0 0 114.526 71.259" enable-background="new 0 0 114.526 71.259"
	 xml:space="preserve">
<polygon fill="#666666" points="19.065,4.531 38.159,0 25.194,20.702 37.223,17.379 0,71.259 18.555,28.873 6.979,30.917 "/>
<g>
	<g>
		<polygon fill="#666666" points="71.395,22.868 71.395,17.588 91.015,17.588 91.015,22.983 78.843,37.073 91.449,37.073 
			91.449,42.4 70.53,42.4 70.53,37.345 82.828,22.868 		"/>
		<polygon fill="#666666" points="94.471,22.868 94.471,17.588 114.091,17.588 114.091,22.983 101.918,37.073 114.526,37.073 
			114.526,42.4 93.607,42.4 93.607,37.345 105.904,22.868 		"/>
		<path fill="#666666" d="M41.774,8.54c0.335,0.023,0.791,0.057,1.366,0.102v5.281c-0.363-0.045-0.975-0.079-1.833-0.103
			c-0.856-0.023-1.448,0.168-1.775,0.57c-0.325,0.402-0.488,0.847-0.488,1.332v2.094h4.255v4.576h-4.255V42.4h-6.441V22.391H28.96
			v-4.576h3.551v-1.593c0-2.655,0.447-4.484,1.343-5.486c0.94-1.488,3.21-2.23,6.805-2.23C41.068,8.506,41.441,8.518,41.774,8.54"/>
		<path fill="#666666" d="M52.566,17.588v14.955c0,1.411,0.167,2.473,0.499,3.187c0.589,1.261,1.743,1.89,3.466,1.89
			c2.201,0,3.714-0.896,4.531-2.686c0.42-0.971,0.632-2.254,0.632-3.847V17.588h6.578v24.81h-6.304v-3.504
			c-0.061,0.076-0.212,0.303-0.456,0.683c-0.24,0.378-0.528,0.712-0.861,1.001c-1.016,0.91-1.993,1.534-2.941,1.866
			c-0.945,0.334-2.053,0.502-3.325,0.502c-3.662,0-6.131-1.321-7.402-3.961c-0.712-1.457-1.065-3.605-1.065-6.442V17.588H52.566z"/>
	</g>
</g>
<polygon fill="#666666" points="63.589,13.631 64.256,13.631 64.256,9.604 63.589,9.604 63.589,8.828 65.96,8.828 65.96,9.604 
	65.285,9.604 65.285,13.631 65.96,13.631 65.96,14.399 63.589,14.399 "/>
<polygon fill="#666666" points="77.482,13.631 78.148,13.631 78.148,9.604 77.482,9.604 77.482,8.828 79.853,8.828 79.853,9.604 
	79.177,9.604 79.177,13.631 79.853,13.631 79.853,14.399 77.482,14.399 "/>
<polygon fill="#666666" points="99.981,13.631 100.649,13.631 100.649,9.652 99.981,9.652 99.981,8.828 102.351,8.828 
	102.351,9.652 101.676,9.652 101.676,13.575 103.324,13.575 103.324,12.713 104.202,12.713 104.202,14.399 99.981,14.399 "/>
<path fill="#666666" d="M49.964,13.591c1.005,0,1.829-0.862,1.829-2.015c0-1.1-0.824-1.939-1.829-1.939
	c-1.004,0-1.828,0.839-1.828,1.939C48.136,12.729,48.96,13.591,49.964,13.591 M49.964,8.734c1.648,0,2.887,1.248,2.887,2.842
	c0,1.639-1.239,2.918-2.887,2.918c-1.649,0-2.888-1.279-2.888-2.918C47.076,9.982,48.315,8.734,49.964,8.734"/>
<path fill="#666666" d="M58.075,11.441c0.54,0,0.895-0.322,0.895-0.918c0-0.368-0.134-0.643-0.441-0.77
	c-0.149-0.07-0.36-0.1-0.627-0.1h-0.753v1.788H58.075z M55.453,13.631h0.667V9.604h-0.667V8.828h2.456
	c0.409,0,0.747,0.023,1.061,0.116c0.627,0.212,1.029,0.708,1.029,1.492c0,0.784-0.402,1.326-1.052,1.546v0.015l0.094,0.071
	c0.054,0.054,0.126,0.118,0.179,0.219l0.643,1.162c0.087,0.15,0.19,0.181,0.378,0.181h0.181v0.769H59.77
	c-0.456,0-0.603-0.095-0.778-0.415L58.2,12.549c-0.117-0.213-0.22-0.284-0.542-0.284h-0.51v1.366h0.643v0.769h-2.339V13.631z"/>
<path fill="#666666" d="M71.835,8.734c0.995,0,2.181,0.384,2.181,1.099v0.77h-0.934v-0.408c0-0.386-0.605-0.582-1.201-0.582
	c-1.185,0-1.922,0.754-1.922,1.939c0,1.191,0.737,2.064,1.969,2.064c0.447,0,1.279-0.118,1.279-0.582v-0.595h-1.012v-0.769h1.946
	v1.679c0,0.848-1.49,1.145-2.315,1.145c-1.71,0-2.935-1.239-2.935-2.904C68.892,9.928,70.1,8.734,71.835,8.734"/>
<path fill="#666666" d="M83.154,13.631h0.669V9.604h-0.669V8.828h1.696l2.346,3.586c0.056,0.087,0.102,0.211,0.141,0.306
	l0.063,0.165h0.023l-0.015-0.189c-0.008-0.118-0.017-0.236-0.017-0.337V9.604h-0.689V8.828h2.384v0.775H88.42v4.796h-1.029
	l-2.347-3.572c-0.053-0.092-0.102-0.211-0.142-0.306l-0.061-0.166h-0.03l0.022,0.181c0.009,0.103,0.023,0.236,0.017,0.339v2.754
	h0.69v0.769h-2.386L83.154,13.631L83.154,13.631z"/>
<path fill="#666666" d="M95.165,11.787l-0.526-1.578l-0.084-0.346c-0.009-0.054-0.017-0.101-0.017-0.141h-0.023l-0.023,0.141
	c-0.023,0.086-0.04,0.197-0.079,0.346l-0.533,1.578H95.165z M91.759,13.631h0.51l1.671-4.802h1.17l1.671,4.802h0.51v0.769h-2.096
	v-0.769h0.551l-0.346-1.044h-1.759l-0.346,1.044h0.551v0.769h-2.089L91.759,13.631L91.759,13.631z"/>
</svg>
