<?xml version="1.0" encoding="utf-8"?>
<!-- Generator: Adobe Illustrator 17.0.0, SVG Export Plug-In . SVG Version: 6.00 Build 0)  -->
<!DOCTYPE svg PUBLIC "-//W3C//DTD SVG 1.1//EN" "http://www.w3.org/Graphics/SVG/1.1/DTD/svg11.dtd">
<svg version="1.1" id="Layer_1" xmlns="http://www.w3.org/2000/svg" xmlns:xlink="http://www.w3.org/1999/xlink" x="0px" y="0px"
	 width="340.168px" height="211.658px" viewBox="0 0 340.168 211.658" enable-background="new 0 0 340.168 211.658"
	 xml:space="preserve">
<polygon fill="#CD5745" points="56.628,13.459 113.34,0 74.832,61.491 110.562,51.62 0,211.658 55.112,85.759 20.729,91.83 "/>
<polygon fill="#FFFFFF" points="212.061,67.925 212.061,52.24 270.337,52.24 270.337,68.266 234.181,110.117 271.624,110.117 
	271.624,125.938 209.491,125.938 209.491,110.926 246.019,67.925 "/>
<polygon fill="#FFFFFF" points="280.601,67.925 280.601,52.24 338.879,52.24 338.879,68.266 302.719,110.117 340.168,110.117 
	340.168,125.938 278.035,125.938 278.035,110.926 314.561,67.925 "/>
<path fill="#FFFFFF" d="M124.081,25.365c0.994,0.067,2.351,0.168,4.059,0.302v15.687c-1.078-0.134-2.896-0.235-5.445-0.306
	c-2.543-0.069-4.3,0.498-5.273,1.693c-0.966,1.195-1.449,2.515-1.449,3.955v6.22h12.638v13.591h-12.638v59.432H96.841V66.506H86.019
	V52.916h10.548v-4.732c0-7.887,1.326-13.319,3.988-16.295c2.791-4.419,9.534-6.625,20.214-6.625
	C121.982,25.264,123.091,25.298,124.081,25.365"/>
<path fill="#FFFFFF" d="M156.133,52.24v44.42c0,4.192,0.496,7.345,1.481,9.465c1.749,3.746,5.176,5.614,10.296,5.614
	c6.539,0,11.031-2.661,13.457-7.979c1.249-2.883,1.878-6.696,1.878-11.428V52.24h19.539v73.691h-18.724v-10.408
	c-0.181,0.226-0.63,0.899-1.354,2.029c-0.714,1.124-1.568,2.116-2.558,2.974c-3.017,2.702-5.92,4.557-8.734,5.542
	c-2.808,0.992-6.099,1.49-9.875,1.49c-10.878,0-18.21-3.923-21.984-11.764c-2.114-4.328-3.164-10.708-3.164-19.135V52.24H156.133z"
	/>
<g>
	<polygon fill="#7E9BC0" points="188.874,40.485 190.856,40.485 190.856,28.525 188.874,28.525 188.874,26.222 195.917,26.222 
		195.917,28.525 193.912,28.525 193.912,40.485 195.917,40.485 195.917,42.769 188.874,42.769 	"/>
	<polygon fill="#7E9BC0" points="230.14,40.485 232.117,40.485 232.117,28.525 230.14,28.525 230.14,26.222 237.183,26.222 
		237.183,28.525 235.175,28.525 235.175,40.485 237.183,40.485 237.183,42.769 230.14,42.769 	"/>
	<polygon fill="#7E9BC0" points="296.969,40.485 298.951,40.485 298.951,28.669 296.969,28.669 296.969,26.222 304.006,26.222 
		304.006,28.669 302.003,28.669 302.003,40.319 306.898,40.319 306.898,37.762 309.505,37.762 309.505,42.769 296.969,42.769 	"/>
	<path fill="#7E9BC0" d="M148.404,40.366c2.985,0,5.432-2.56,5.432-5.985c0-3.267-2.448-5.76-5.432-5.76
		c-2.983,0-5.43,2.493-5.43,5.76C142.973,37.807,145.421,40.366,148.404,40.366 M148.404,25.941c4.895,0,8.575,3.707,8.575,8.441
		c0,4.867-3.679,8.667-8.575,8.667c-4.898,0-8.577-3.8-8.577-8.667C139.827,29.648,143.506,25.941,148.404,25.941"/>
	<path fill="#7E9BC0" d="M172.498,33.981c1.604,0,2.657-0.955,2.657-2.728c0-1.093-0.399-1.911-1.309-2.286
		c-0.442-0.207-1.07-0.298-1.863-0.298h-2.236v5.312H172.498z M164.709,40.485h1.982v-11.96h-1.982v-2.303h7.296
		c1.214,0,2.219,0.067,3.151,0.345c1.861,0.63,3.056,2.103,3.056,4.432c0,2.329-1.195,3.938-3.125,4.591v0.045l0.28,0.211
		c0.16,0.162,0.373,0.352,0.533,0.651l1.911,3.451c0.259,0.446,0.563,0.537,1.121,0.537h0.537v2.284h-1.937
		c-1.354,0-1.792-0.283-2.312-1.231l-2.351-4.266c-0.347-0.634-0.654-0.843-1.609-0.843h-1.514v4.057h1.911v2.284h-6.949V40.485z"/>
	<path fill="#7E9BC0" d="M213.367,25.941c2.957,0,6.478,1.141,6.478,3.263v2.286h-2.773v-1.212c0-1.145-1.796-1.727-3.567-1.727
		c-3.52,0-5.708,2.239-5.708,5.758c0,3.539,2.189,6.131,5.849,6.131c1.329,0,3.8-0.352,3.8-1.727v-1.768h-3.006V34.66h5.78v4.988
		c0,2.519-4.425,3.401-6.877,3.401c-5.079,0-8.717-3.681-8.717-8.624C204.624,29.486,208.213,25.941,213.367,25.941"/>
	<path fill="#7E9BC0" d="M246.986,40.485h1.986v-11.96h-1.986v-2.303h5.038l6.968,10.651c0.166,0.259,0.302,0.628,0.418,0.91
		l0.188,0.49h0.069l-0.045-0.561c-0.024-0.349-0.049-0.701-0.049-1.001v-8.186h-2.047v-2.303h7.082v2.303h-1.98v14.244h-3.056
		l-6.97-10.608c-0.157-0.274-0.302-0.625-0.42-0.908L252,30.761h-0.091l0.065,0.537c0.026,0.306,0.069,0.701,0.05,1.007v8.18h2.049
		v2.284h-7.086V40.485z"/>
	<path fill="#7E9BC0" d="M282.662,35.01l-1.564-4.686l-0.25-1.029c-0.028-0.162-0.052-0.3-0.052-0.418h-0.069l-0.067,0.418
		c-0.069,0.257-0.119,0.584-0.235,1.029l-1.583,4.686H282.662z M272.545,40.485h1.516l4.964-14.264h3.474l4.962,14.264h1.516v2.284
		h-6.226v-2.284h1.637l-1.026-3.101h-5.223l-1.027,3.101h1.637v2.284h-6.204V40.485z"/>
</g>
</svg>
