<?xml version="1.0" encoding="utf-8"?>
<!-- Generator: Adobe Illustrator 17.0.0, SVG Export Plug-In . SVG Version: 6.00 Build 0)  -->
<!DOCTYPE svg PUBLIC "-//W3C//DTD SVG 1.1//EN" "http://www.w3.org/Graphics/SVG/1.1/DTD/svg11.dtd">
<svg version="1.1" id="Layer_1" xmlns="http://www.w3.org/2000/svg" xmlns:xlink="http://www.w3.org/1999/xlink" x="0px" y="0px"
	 width="157.734px" height="98.144px" viewBox="0 0 157.734 98.144" enable-background="new 0 0 157.734 98.144"
	 xml:space="preserve">
<polygon fill="#CE5946" points="26.258,6.241 52.555,0 34.699,28.513 51.267,23.936 0,98.144 25.555,39.766 9.612,42.581 "/>
<g>
	<g>
		<polygon fill="#323C4E" points="98.331,31.496 98.331,24.223 125.353,24.223 125.353,31.654 108.588,51.06 125.95,51.06 
			125.95,58.396 97.139,58.396 97.139,51.435 114.077,31.496 		"/>
		<polygon fill="#323C4E" points="130.113,31.496 130.113,24.223 157.135,24.223 157.135,31.654 140.369,51.06 157.734,51.06 
			157.734,58.396 128.923,58.396 128.923,51.435 145.859,31.496 		"/>
		<path fill="#323C4E" d="M57.535,11.762c0.461,0.031,1.09,0.078,1.882,0.14v7.274c-0.5-0.062-1.343-0.109-2.525-0.142
			c-1.179-0.032-1.994,0.231-2.445,0.785c-0.448,0.554-0.672,1.166-0.672,1.834v2.884h5.86v6.302h-5.86v27.558h-8.871V30.839h-5.018
			v-6.302h4.891v-2.194c0-3.657,0.615-6.176,1.849-7.556c1.294-2.049,4.421-3.072,9.373-3.072
			C56.562,11.715,57.076,11.731,57.535,11.762"/>
		<path fill="#323C4E" d="M72.398,24.223V44.82c0,1.944,0.23,3.406,0.687,4.389c0.811,1.737,2.4,2.603,4.774,2.603
			c3.032,0,5.115-1.234,6.24-3.7c0.579-1.337,0.871-3.105,0.871-5.299v-18.59h9.06v34.17h-8.682v-4.826
			c-0.084,0.105-0.292,0.417-0.628,0.941c-0.331,0.521-0.727,0.981-1.186,1.379c-1.399,1.253-2.745,2.113-4.05,2.57
			c-1.302,0.46-2.828,0.691-4.579,0.691c-5.044,0-8.444-1.819-10.194-5.455c-0.98-2.007-1.467-4.965-1.467-8.873V24.223H72.398z"/>
	</g>
</g>
<polygon fill="#85A6C4" points="87.579,18.773 88.498,18.773 88.498,13.227 87.579,13.227 87.579,12.159 90.845,12.159 
	90.845,13.227 89.915,13.227 89.915,18.773 90.845,18.773 90.845,19.832 87.579,19.832 "/>
<polygon fill="#85A6C4" points="106.714,18.773 107.631,18.773 107.631,13.227 106.714,13.227 106.714,12.159 109.98,12.159 
	109.98,13.227 109.049,13.227 109.049,18.773 109.98,18.773 109.98,19.832 106.714,19.832 "/>
<polygon fill="#85A6C4" points="137.702,18.773 138.621,18.773 138.621,13.294 137.702,13.294 137.702,12.159 140.965,12.159 
	140.965,13.294 140.036,13.294 140.036,18.696 142.306,18.696 142.306,17.51 143.515,17.51 143.515,19.832 137.702,19.832 "/>
<path fill="#85A6C4" d="M68.814,18.718c1.384,0,2.519-1.187,2.519-2.775c0-1.515-1.135-2.671-2.519-2.671
	c-1.383,0-2.518,1.156-2.518,2.671C66.296,17.531,67.431,18.718,68.814,18.718 M68.814,12.029c2.27,0,3.976,1.719,3.976,3.914
	c0,2.257-1.706,4.019-3.976,4.019c-2.271,0-3.977-1.762-3.977-4.019C64.837,13.748,66.543,12.029,68.814,12.029"/>
<path fill="#85A6C4" d="M79.986,15.757c0.744,0,1.232-0.443,1.232-1.265c0-0.507-0.185-0.886-0.607-1.06
	c-0.205-0.096-0.496-0.138-0.864-0.138H78.71v2.463H79.986z M76.374,18.773h0.919v-5.546h-0.919v-1.068h3.383
	c0.563,0,1.029,0.031,1.461,0.16c0.863,0.292,1.417,0.975,1.417,2.055c0,1.08-0.554,1.826-1.449,2.129v0.021l0.13,0.098
	c0.074,0.075,0.173,0.163,0.247,0.302l0.886,1.6c0.12,0.207,0.261,0.249,0.52,0.249h0.249v1.059H82.32
	c-0.628,0-0.831-0.131-1.072-0.571l-1.09-1.978c-0.161-0.294-0.303-0.391-0.746-0.391H78.71v1.881h0.886v1.059h-3.222V18.773z"/>
<path fill="#85A6C4" d="M98.937,12.029c1.371,0,3.004,0.529,3.004,1.513v1.06h-1.286V14.04c0-0.531-0.833-0.801-1.654-0.801
	c-1.632,0-2.647,1.038-2.647,2.67c0,1.641,1.015,2.843,2.712,2.843c0.616,0,1.762-0.163,1.762-0.801v-0.82h-1.394v-1.059h2.68v2.313
	c0,1.168-2.052,1.577-3.189,1.577c-2.355,0-4.042-1.707-4.042-3.999C94.883,13.673,96.547,12.029,98.937,12.029"/>
<path fill="#85A6C4" d="M114.526,18.773h0.921v-5.546h-0.921v-1.068h2.336l3.231,4.939c0.077,0.12,0.14,0.291,0.194,0.422
	l0.087,0.227h0.032l-0.021-0.26c-0.011-0.162-0.023-0.325-0.023-0.464v-3.796h-0.949v-1.068h3.284v1.068h-0.918v6.605h-1.417
	l-3.232-4.919c-0.073-0.127-0.14-0.29-0.195-0.421l-0.084-0.228h-0.042l0.03,0.249c0.012,0.142,0.032,0.325,0.023,0.467v3.793h0.95
	v1.059h-3.286V18.773z"/>
<path fill="#85A6C4" d="M131.068,16.234l-0.725-2.173l-0.116-0.477c-0.013-0.075-0.024-0.139-0.024-0.194h-0.032l-0.031,0.194
	c-0.032,0.119-0.055,0.271-0.109,0.477l-0.734,2.173H131.068z M126.377,18.773h0.703l2.302-6.614h1.611l2.301,6.614h0.703v1.059
	h-2.887v-1.059h0.759l-0.476-1.438h-2.422l-0.476,1.438h0.759v1.059h-2.877V18.773z"/>
</svg>
